HIERARCHY
ROOT Hips
{
	OFFSET 0.000000 0.000000 0.000000
	CHANNELS 6 Xposition Yposition Zposition Xrotation Yrotation Zrotation
	JOINT LeftUpLeg_virtual
	{
		OFFSET 0.000000 0.000000 0.000000
		CHANNELS 3 Xrotation Yrotation Zrotation
		JOINT LeftUpLeg
		{
			OFFSET 11.394100 -6.187798 -0.413800
			CHANNELS 3 Xrotation Yrotation Zrotation
			JOINT LeftLeg
			{
				OFFSET 0.430247 -32.302673 3.732800
				CHANNELS 3 Xrotation Yrotation Zrotation
				JOINT LeftFoot
				{
					OFFSET -0.430247 -48.264931 -6.423300
					CHANNELS 3 Xrotation Yrotation Zrotation
					JOINT LeftToeBase
					{
						OFFSET 4.230900 -16.068199 23.438400
						CHANNELS 3 Xrotation Yrotation Zrotation
						JOINT LeftToe_End
						{
							OFFSET 4.510700 0.695400 19.974600
							CHANNELS 3 Xrotation Yrotation Zrotation
							End Site
							{
								OFFSET 0 0 0
							}
						}
					}
				}
			}
		}
	}
	JOINT RightUpLeg_virtual
	{
		OFFSET 0.000000 0.000000 0.000000
		CHANNELS 3 Xrotation Yrotation Zrotation
		JOINT RightUpLeg
		{
			OFFSET -11.333700 -6.187798 -0.413800
			CHANNELS 3 Xrotation Yrotation Zrotation
			JOINT RightLeg
			{
				OFFSET -0.430392 -32.302628 3.733000
				CHANNELS 3 Xrotation Yrotation Zrotation
				JOINT RightFoot
				{
					OFFSET 0.430392 -48.264973 -6.423500
					CHANNELS 3 Xrotation Yrotation Zrotation
					JOINT RightToeBase
					{
						OFFSET -4.230900 -16.068199 23.438400
						CHANNELS 3 Xrotation Yrotation Zrotation
						JOINT RightToe_End
						{
							OFFSET -4.510700 0.695400 19.974600
							CHANNELS 3 Xrotation Yrotation Zrotation
							End Site
							{
								OFFSET 0 0 0
							}
						}
					}
				}
			}
		}
	}
	JOINT Spine_virtual
	{
		OFFSET 0.000000 0.000000 0.000000
		CHANNELS 3 Xrotation Yrotation Zrotation
		JOINT Spine
		{
			OFFSET -0.002400 12.777504 0.315300
			CHANNELS 3 Xrotation Yrotation Zrotation
			JOINT Spine1
			{
				OFFSET -0.002067 5.816869 0.032633
				CHANNELS 3 Xrotation Yrotation Zrotation
				JOINT Spine1_split
				{
					OFFSET -0.002067 5.816869 0.032633
					CHANNELS 3 Xrotation Yrotation Zrotation
					JOINT Spine2
					{
						OFFSET -0.002067 5.816869 0.032633
						CHANNELS 3 Xrotation Yrotation Zrotation
						JOINT Neck_virtual
						{
							OFFSET 0.000000 0.000000 0.000000
							CHANNELS 3 Xrotation Yrotation Zrotation
							JOINT Neck
							{
								OFFSET -0.003700 21.199493 -0.826900
								CHANNELS 3 Xrotation Yrotation Zrotation
								JOINT Head
								{
									OFFSET 0.000000 20.442200 4.834800
									CHANNELS 3 Xrotation Yrotation Zrotation
									JOINT HeadTop_End
									{
										OFFSET 0.000000 34.668396 4.968400
										CHANNELS 3 Xrotation Yrotation Zrotation
										End Site
										{
											OFFSET 0 0 0
										}
									}
								}
							}
						}
						JOINT LeftShoulder_virtual
						{
							OFFSET 0.000000 0.000000 0.000000
							CHANNELS 3 Xrotation Yrotation Zrotation
							JOINT LeftShoulder
							{
								OFFSET 3.288150 8.794197 -1.372250
								CHANNELS 3 Xrotation Yrotation Zrotation
								JOINT LeftShoulder_split
								{
									OFFSET 3.288150 8.794197 -1.372250
									CHANNELS 3 Xrotation Yrotation Zrotation
									JOINT LeftArm
									{
										OFFSET 11.953299 -2.279007 -0.146200
										CHANNELS 3 Xrotation Yrotation Zrotation
										JOINT LeftForeArm
										{
											OFFSET 18.448900 0.000000 0.000000
											CHANNELS 3 Xrotation Yrotation Zrotation
											JOINT LeftHand
											{
												OFFSET 29.527798 0.000000 0.000000
												CHANNELS 3 Xrotation Yrotation Zrotation
												End Site
												{
													OFFSET 0 0 0
												}
											}
										}
									}
								}
							}
						}
						JOINT RightShoulder_virtual
						{
							OFFSET 0.000000 0.000000 0.000000
							CHANNELS 3 Xrotation Yrotation Zrotation
							JOINT RightShoulder
							{
								OFFSET -3.249400 8.794197 -1.372250
								CHANNELS 3 Xrotation Yrotation Zrotation
								JOINT RightShoulder_split
								{
									OFFSET -3.249400 8.794197 -1.372250
									CHANNELS 3 Xrotation Yrotation Zrotation
									JOINT RightArm
									{
										OFFSET -11.953299 -2.279007 -0.146200
										CHANNELS 3 Xrotation Yrotation Zrotation
										JOINT RightForeArm
										{
											OFFSET -18.448900 0.000000 0.000000
											CHANNELS 3 Xrotation Yrotation Zrotation
											JOINT RightHand
											{
												OFFSET -29.527802 0.000000 0.000000
												CHANNELS 3 Xrotation Yrotation Zrotation
												End Site
												{
													OFFSET 0 0 0
												}
											}
										}
									}
								}
							}
						}
					}
				}
			}
		}
	}
}
MOTION
Frames: 4
Frame Time: 0.03333333
0.019111 136.143753 14.230030 0.000000 0.000000 0.000000 -85.619290 -7.967314 -2.038735 -12.257595 17.836931 15.002937 6.295814 5.371799 4.338333 18.096139 27.577942 -20.155799 -7.587389 0.030742 1.802643 0.000000 0.000000 0.000000 -87.267995 -5.615770 -0.991707 -18.793342 -15.946263 -12.936460 15.816449 -5.263315 -8.426923 27.607604 -30.804017 29.739784 -14.460161 0.992624 -1.883719 0.000000 0.000000 0.000000 -85.046483 -7.688153 -2.910305 -0.652170 -2.356525 0.386238 -0.417439 -2.905325 0.741025 2.059876 3.168087 -0.556497 0.000000 0.000000 0.000000 -1.957190 -3.062442 0.462707 -13.471045 1.509914 0.317640 10.352300 -2.256962 3.888974 0.000000 0.000000 0.000000 -1.126336 -3.104182 1.127541 0.383101 3.844346 -2.432734 -2.540690 2.524915 -5.802982 41.956274 -32.925562 -47.402770 169.399415 -87.473768 169.880451 0.000000 0.000000 0.000000 -1.164495 -2.889863 0.656955 1.088258 -4.117098 12.949433 0.680891 3.038019 -0.259291 31.922013 34.176945 39.504035 173.570120 76.024582 -173.337046 0.000000 0.000000 0.000000 
0.123194 136.223648 14.530376 0.000000 0.000000 0.000000 -85.591327 -7.976996 -2.099993 -12.348702 17.558683 14.990325 6.351529 5.365560 4.355219 18.266012 27.587108 -20.187932 -7.408112 0.056922 1.756153 0.000000 0.000000 0.000000 -87.255428 -5.553250 -0.961692 -18.538863 -15.857411 -12.695092 15.728384 -5.288034 -8.473945 27.413762 -30.922035 29.776572 -14.539284 1.059341 -1.996990 0.000000 0.000000 0.000000 -84.895850 -7.432514 -2.757076 -0.578208 -2.347837 0.558062 -0.262570 -2.859459 0.783574 1.888345 3.083830 -0.761669 0.000000 0.000000 0.000000 -1.916373 -3.038180 0.494617 -13.732815 1.753551 0.236894 10.499246 -1.936071 3.377148 0.000000 0.000000 0.000000 -0.886176 -3.065763 1.254290 0.217059 3.751970 -3.062496 -2.309737 3.214867 -5.008029 41.831398 -32.888290 -47.110905 167.910789 -87.978608 168.157686 0.000000 0.000000 0.000000 -0.874995 -2.805875 0.621487 1.137044 -3.860224 12.756278 0.892843 2.750586 -0.048242 29.882839 34.473327 39.640751 173.829926 74.968914 -173.646044 0.000000 0.000000 0.000000 
0.197105 136.401382 14.851364 0.000000 0.000000 0.000000 -85.612931 -7.935822 -2.064651 -12.479416 17.307962 14.988917 6.387511 5.425271 4.359656 18.326709 27.589979 -20.208737 -7.157030 0.103330 1.662174 0.000000 0.000000 0.000000 -87.228865 -5.394938 -0.852967 -18.256694 -15.534131 -12.330262 15.695763 -5.312265 -8.558215 27.168742 -31.134683 29.654137 -14.539326 1.174922 -2.136309 0.000000 0.000000 0.000000 -84.836639 -7.250118 -2.667882 -0.359108 -2.355741 0.800856 0.153018 -2.808888 0.811172 1.644270 2.640444 -0.902880 0.000000 0.000000 0.000000 -1.578459 -3.016261 0.506208 -13.804196 1.981392 -0.134361 10.500507 -1.203956 2.297550 0.000000 0.000000 0.000000 -0.313814 -3.070039 1.317873 0.057845 3.733660 -4.041979 -2.157847 3.816048 -4.126202 40.251879 -32.385595 -47.547587 170.003395 -89.214661 170.118688 0.000000 0.000000 0.000000 -0.407244 -2.762671 0.549201 1.089431 -3.212684 12.434486 1.020163 2.518479 0.705555 26.018450 35.199551 39.918122 175.044020 73.990497 -175.111065 0.000000 0.000000 0.000000 
0.232560 136.611679 15.130838 0.000000 0.000000 0.000000 -85.655203 -7.860392 -1.925495 -12.595160 17.173160 14.988334 6.420318 5.498705 4.362322 18.255192 27.574245 -20.230778 -7.070436 0.152901 1.597762 0.000000 0.000000 0.000000 -87.208368 -5.242477 -0.685147 -18.121930 -15.083805 -11.973417 15.765921 -5.295318 -8.650772 26.976725 -31.356715 29.444396 -14.434517 1.308957 -2.241495 0.000000 0.000000 0.000000 -84.918704 -7.202417 -2.646681 -0.021359 -2.329964 1.021945 0.824138 -2.649950 0.804544 1.355070 1.924596 -0.830201 0.000000 0.000000 0.000000 -0.944647 -2.886872 0.460692 -13.602994 2.064014 -0.681837 10.333604 -0.202702 0.819817 0.000000 0.000000 0.000000 0.559943 -2.990721 1.312085 -0.066932 3.778316 -5.149870 -1.947301 3.945396 -3.172038 37.711623 -31.658227 -48.270309 -33.316327 -89.414498 -33.246451 0.000000 0.000000 0.000000 0.213977 -2.654421 0.432567 0.935643 -2.226112 12.042989 0.983435 2.494611 1.597881 20.740590 36.158359 40.485007 176.574378 73.168845 -177.004803 0.000000 0.000000 0.000000 
